<?xml version="1.0" encoding="utf-8"?>
<!-- Generator: Adobe Illustrator 24.3.0, SVG Export Plug-In . SVG Version: 6.00 Build 0)  -->
<svg version="1.1" id="Layer_1" xmlns="http://www.w3.org/2000/svg" xmlns:xlink="http://www.w3.org/1999/xlink" x="0px" y="0px"
	 viewBox="0 0 584 584" style="enable-background:new 0 0 584 584;" xml:space="preserve">
<style type="text/css">
	.st0{fill:url(#SVGID_1_);}
	.st1{fill:url(#SVGID_2_);}
	.st2{fill:url(#SVGID_3_);}
	.st3{fill:url(#SVGID_4_);}
	.st4{fill:url(#SVGID_5_);}
	.st5{fill:url(#SVGID_6_);}
	.st6{fill:url(#SVGID_7_);}
	.st7{fill:url(#SVGID_8_);}
	.st8{fill:url(#SVGID_9_);}
	.st9{fill:#2D409C;}
	.st10{fill:url(#SVGID_10_);}
	.st11{fill:url(#SVGID_11_);}
	.st12{fill:url(#SVGID_12_);}
	.st13{fill:url(#SVGID_13_);}
	.st14{fill:url(#SVGID_14_);}
	.st15{fill:url(#SVGID_15_);}
	.st16{fill:url(#SVGID_16_);}
	.st17{fill:url(#SVGID_17_);}
	.st18{fill:url(#SVGID_18_);}
	.st19{fill:#03073D;}
	.st20{fill:url(#SVGID_19_);}
</style>
<g>
	<g>
		<linearGradient id="SVGID_1_" gradientUnits="userSpaceOnUse" x1="-1440.3708" y1="-394.1838" x2="-806.0731" y2="-114.4175">
			<stop  offset="0" style="stop-color:#29ABE2"/>
			<stop  offset="1" style="stop-color:#2D409C"/>
		</linearGradient>
		<path class="st0" d="M-1186.03-297.57h20.02c0.64,0,1.21,0.41,1.42,1.01l17.78,51.92h0.64l17.78-51.92
			c0.21-0.61,0.78-1.01,1.42-1.01h20.02c1.05,0,1.77,1.05,1.4,2.03l-28.54,75.6c-0.22,0.58-0.78,0.97-1.4,0.97h-21.99
			c-0.62,0-1.18-0.39-1.4-0.97l-28.54-75.6C-1187.8-296.52-1187.07-297.57-1186.03-297.57z"/>
		<linearGradient id="SVGID_2_" gradientUnits="userSpaceOnUse" x1="-1417.2905" y1="-446.5123" x2="-782.9929" y2="-166.746">
			<stop  offset="0" style="stop-color:#29ABE2"/>
			<stop  offset="1" style="stop-color:#2D409C"/>
		</linearGradient>
		<path class="st1" d="M-1014.47-297.57h18.66c0.83,0,1.5,0.67,1.5,1.5v9.73h0.8c1.76-2.41,3.69-4.49,5.94-6.42
			c3.85-3.21,9.62-6.42,17.32-6.42h0.11c0.83,0,1.5,0.67,1.5,1.5v19.97c0,0.93-0.85,1.64-1.77,1.47l0,0
			c-1.28-0.16-3.05-0.48-5.45-0.48c-10.43,0-18.45,8.02-18.45,20.85v35.4c0,0.83-0.67,1.5-1.5,1.5h-18.66c-0.83,0-1.5-0.67-1.5-1.5
			v-75.6C-1015.97-296.9-1015.3-297.57-1014.47-297.57z"/>
		<linearGradient id="SVGID_3_" gradientUnits="userSpaceOnUse" x1="-1410.2538" y1="-462.4663" x2="-775.9561" y2="-182.7">
			<stop  offset="0" style="stop-color:#29ABE2"/>
			<stop  offset="1" style="stop-color:#2D409C"/>
		</linearGradient>
		<path class="st2" d="M-956.61-297.57h18.66c0.83,0,1.5,0.67,1.5,1.5v75.6c0,0.83-0.67,1.5-1.5,1.5h-18.66
			c-0.83,0-1.5-0.67-1.5-1.5v-75.6C-958.11-296.9-957.44-297.57-956.61-297.57z"/>
		<linearGradient id="SVGID_4_" gradientUnits="userSpaceOnUse" x1="-1401.3746" y1="-482.5974" x2="-767.077" y2="-202.8311">
			<stop  offset="0" style="stop-color:#29ABE2"/>
			<stop  offset="1" style="stop-color:#2D409C"/>
		</linearGradient>
		<path class="st3" d="M-914.95-244.3c0.57-0.6,1.51-0.63,2.11-0.06c1.37,1.29,2.91,2.41,4.56,3.42c3.69,2.41,8.82,4.33,15.24,4.33
			c7.22,0,9.62-2.41,9.62-5.61c0-8.82-40.1-7.22-40.1-32.88c0-12.83,11.23-24.06,31.28-24.06c10.11,0,17.64,3.05,22.78,6.1
			c2.53,1.47,4.74,3.16,6.61,4.88c0.61,0.57,0.65,1.52,0.07,2.13l-10.86,11.53c-0.53,0.57-1.4,0.62-2.02,0.15
			c-1.07-0.82-2.29-1.63-3.59-2.34c-3.05-1.76-7.38-3.21-12.99-3.21c-5.61,0-8.02,2.41-8.02,4.81c0,8.82,40.1,7.22,40.1,32.88
			c0,13.47-11.23,24.86-32.88,24.86c-10.91,0-19.25-3.53-25.02-7.22c-2.92-1.81-5.48-3.86-7.68-6.15c-0.56-0.58-0.58-1.5-0.03-2.08
			L-914.95-244.3z"/>
		<linearGradient id="SVGID_5_" gradientUnits="userSpaceOnUse" x1="-1447.229" y1="-378.6346" x2="-812.9313" y2="-98.8683">
			<stop  offset="0" style="stop-color:#29ABE2"/>
			<stop  offset="1" style="stop-color:#2D409C"/>
		</linearGradient>
		<path class="st4" d="M-1200.56-240.61v-88.16c0-0.83-0.67-1.5-1.5-1.5h-18.66c-0.83,0-1.5,0.67-1.5,1.5v108.31
			c0,0.83,0.67,1.5,1.5,1.5h19.55h0.61h10.49c0.83,0,1.5-0.67,1.5-1.5v-17.15c0-0.83-0.67-1.5-1.5-1.5h-8.99
			C-1199.89-239.11-1200.56-239.78-1200.56-240.61z"/>
		<linearGradient id="SVGID_6_" gradientUnits="userSpaceOnUse" x1="-1391.4043" y1="-515.7407" x2="-751.5022" y2="-233.5025">
			<stop  offset="0" style="stop-color:#29ABE2"/>
			<stop  offset="1" style="stop-color:#2D409C"/>
		</linearGradient>
		<path class="st5" d="M-938.51-330.71h-17.24c-1.14,0-2.06,0.92-2.06,2.06v17.72c0,1.14,0.92,2.06,2.06,2.06h17.24
			c1.14,0,2.06-0.92,2.06-2.06v-17.72C-936.46-329.79-937.38-330.71-938.51-330.71z"/>
		<linearGradient id="SVGID_7_" gradientUnits="userSpaceOnUse" x1="-1430.3802" y1="-435.6658" x2="-787.7649" y2="-152.2309">
			<stop  offset="0" style="stop-color:#29ABE2"/>
			<stop  offset="1" style="stop-color:#2D409C"/>
		</linearGradient>
		<path class="st6" d="M-879.21-191.73h-27.97c-2.24,0-4.06-1.82-4.06-4.06v-5.87c0-2.24,1.82-4.06,4.06-4.06h27.97
			c2.24,0,4.06,1.82,4.06,4.06v5.87C-875.15-193.55-876.97-191.73-879.21-191.73z"/>
		<linearGradient id="SVGID_8_" gradientUnits="userSpaceOnUse" x1="-1463.5121" y1="-341.717" x2="-829.2143" y2="-61.9507">
			<stop  offset="0" style="stop-color:#29ABE2"/>
			<stop  offset="1" style="stop-color:#2D409C"/>
		</linearGradient>
		<path class="st7" d="M-1273.72-297.56c-20.98,0-38.8,16.04-38.8,39.85c0,23.06,16.63,39.85,41.8,39.85
			c11.67,0,21.57-4.55,28.17-10.83c0.65-0.62,0.53-1.68-0.24-2.13l-13.52-7.96c-0.45-0.27-1.01-0.24-1.44,0.06
			c-3.08,2.08-7.49,3.93-12.97,3.93c-9.86,0-17.86-4.76-21.02-13.79c-0.31-0.87,0.34-1.79,1.27-1.79h53.3
			c0.69,0,1.27-0.52,1.34-1.21C-1233.02-280.79-1251.11-297.56-1273.72-297.56z M-1290.55-265.04c-0.9,0-1.55-0.88-1.28-1.74
			c2.68-8.69,9.69-13.84,18.41-13.84c9.59,0,16.13,5.05,18.49,13.89c0.23,0.85-0.42,1.69-1.3,1.69H-1290.55z"/>
		<linearGradient id="SVGID_9_" gradientUnits="userSpaceOnUse" x1="-1429.2834" y1="-419.3214" x2="-794.9858" y2="-139.5551">
			<stop  offset="0" style="stop-color:#29ABE2"/>
			<stop  offset="1" style="stop-color:#2D409C"/>
		</linearGradient>
		<path class="st8" d="M-1063.54-297.56c-20.98,0-38.8,16.04-38.8,39.85c0,23.06,16.63,39.85,41.8,39.85
			c11.67,0,21.57-4.55,28.17-10.83c0.65-0.62,0.53-1.68-0.24-2.13l-13.52-7.96c-0.45-0.27-1.01-0.24-1.44,0.06
			c-3.08,2.08-7.49,3.93-12.97,3.93c-9.86,0-17.86-4.76-21.02-13.79c-0.31-0.87,0.34-1.79,1.27-1.79h53.3
			c0.69,0,1.27-0.52,1.34-1.21C-1022.85-280.79-1040.93-297.56-1063.54-297.56z M-1080.37-265.04c-0.9,0-1.55-0.88-1.28-1.74
			c2.68-8.69,9.69-13.84,18.41-13.84c9.59,0,16.13,5.05,18.49,13.89c0.23,0.85-0.42,1.69-1.3,1.69H-1080.37z"/>
	</g>
	<g>
		<path class="st9" d="M-1304.3-162.94c-0.65,0-1.36-0.08-2.12-0.24c-0.76-0.16-1.47-0.44-2.14-0.86c-0.67-0.42-1.21-1-1.63-1.75
			c-0.42-0.75-0.63-1.72-0.63-2.92c0-1.41,0.33-2.57,0.98-3.49c0.65-0.91,1.57-1.63,2.75-2.16c1.18-0.52,2.58-0.89,4.22-1.1
			c1.63-0.21,3.42-0.31,5.35-0.31v-2.04c0-0.68-0.11-1.28-0.33-1.8c-0.22-0.52-0.63-0.93-1.22-1.22c-0.59-0.29-1.43-0.43-2.53-0.43
			c-1.1,0-1.96,0.14-2.57,0.41c-0.62,0.27-1.05,0.61-1.29,1.02c-0.25,0.41-0.37,0.84-0.37,1.31v0.59h-3.92
			c-0.03-0.13-0.04-0.26-0.04-0.39c0-0.13,0-0.29,0-0.47c0-1.23,0.35-2.27,1.04-3.12s1.67-1.5,2.92-1.94
			c1.25-0.44,2.71-0.67,4.35-0.67c1.78,0,3.26,0.25,4.45,0.76c1.19,0.51,2.08,1.24,2.69,2.18c0.6,0.94,0.9,2.08,0.9,3.41v10.47
			c0,0.5,0.12,0.85,0.37,1.06c0.25,0.21,0.54,0.31,0.88,0.31h1.41v2.75c-0.31,0.13-0.71,0.26-1.18,0.39
			c-0.47,0.13-1.02,0.2-1.65,0.2c-0.71,0-1.3-0.12-1.78-0.37c-0.48-0.25-0.88-0.6-1.18-1.06c-0.3-0.46-0.5-0.97-0.61-1.55h-0.24
			c-0.47,0.6-1.04,1.13-1.71,1.59c-0.67,0.46-1.43,0.81-2.29,1.06C-1302.26-163.06-1303.23-162.94-1304.3-162.94z M-1303.17-166.31
			c0.81,0,1.56-0.12,2.25-0.37c0.69-0.25,1.29-0.6,1.79-1.06c0.5-0.46,0.89-1.01,1.18-1.65c0.29-0.64,0.43-1.34,0.43-2.1v-1.37
			c-1.8,0-3.39,0.1-4.75,0.31c-1.36,0.21-2.42,0.59-3.18,1.16c-0.76,0.56-1.14,1.34-1.14,2.33c0,0.6,0.13,1.1,0.39,1.51
			c0.26,0.41,0.65,0.71,1.18,0.92C-1304.49-166.41-1303.87-166.31-1303.17-166.31z"/>
		<path class="st9" d="M-1283.56-163.41l-7.65-20.63h4.27l3.57,9.84c0.16,0.47,0.35,1.08,0.59,1.82s0.47,1.51,0.71,2.29
			c0.23,0.78,0.44,1.49,0.63,2.12h0.2c0.16-0.6,0.35-1.29,0.57-2.06c0.22-0.77,0.45-1.54,0.69-2.29s0.44-1.39,0.63-1.88l3.53-9.84
			h4.16l-7.69,20.63H-1283.56z"/>
		<path class="st9" d="M-1264.74-162.94c-0.65,0-1.36-0.08-2.12-0.24c-0.76-0.16-1.47-0.44-2.14-0.86c-0.67-0.42-1.21-1-1.63-1.75
			c-0.42-0.75-0.63-1.72-0.63-2.92c0-1.41,0.33-2.57,0.98-3.49c0.65-0.91,1.57-1.63,2.75-2.16c1.18-0.52,2.58-0.89,4.22-1.1
			c1.63-0.21,3.42-0.31,5.35-0.31v-2.04c0-0.68-0.11-1.28-0.33-1.8c-0.22-0.52-0.63-0.93-1.22-1.22c-0.59-0.29-1.43-0.43-2.53-0.43
			c-1.1,0-1.96,0.14-2.57,0.41c-0.62,0.27-1.05,0.61-1.29,1.02c-0.25,0.41-0.37,0.84-0.37,1.31v0.59h-3.92
			c-0.03-0.13-0.04-0.26-0.04-0.39c0-0.13,0-0.29,0-0.47c0-1.23,0.35-2.27,1.04-3.12s1.67-1.5,2.92-1.94
			c1.25-0.44,2.71-0.67,4.35-0.67c1.78,0,3.26,0.25,4.45,0.76c1.19,0.51,2.08,1.24,2.69,2.18c0.6,0.94,0.9,2.08,0.9,3.41v10.47
			c0,0.5,0.12,0.85,0.37,1.06c0.25,0.21,0.54,0.31,0.88,0.31h1.41v2.75c-0.31,0.13-0.71,0.26-1.18,0.39
			c-0.47,0.13-1.02,0.2-1.65,0.2c-0.71,0-1.3-0.12-1.78-0.37c-0.48-0.25-0.88-0.6-1.18-1.06c-0.3-0.46-0.5-0.97-0.61-1.55h-0.24
			c-0.47,0.6-1.04,1.13-1.71,1.59c-0.67,0.46-1.43,0.81-2.29,1.06C-1262.7-163.06-1263.67-162.94-1264.74-162.94z M-1263.6-166.31
			c0.81,0,1.56-0.12,2.25-0.37c0.69-0.25,1.29-0.6,1.79-1.06c0.5-0.46,0.89-1.01,1.18-1.65c0.29-0.64,0.43-1.34,0.43-2.1v-1.37
			c-1.8,0-3.39,0.1-4.75,0.31c-1.36,0.21-2.42,0.59-3.18,1.16c-0.76,0.56-1.14,1.34-1.14,2.33c0,0.6,0.13,1.1,0.39,1.51
			c0.26,0.41,0.65,0.71,1.18,0.92C-1264.92-166.41-1264.31-166.31-1263.6-166.31z"/>
		<path class="st9" d="M-1249.37-187.6v-4.16h4.08v4.16H-1249.37z M-1249.37-163.41v-20.63h4.08v20.63H-1249.37z"/>
		<path class="st9" d="M-1241.01-163.41v-28.35h4.08v28.35H-1241.01z"/>
		<path class="st9" d="M-1227.44-162.94c-0.65,0-1.36-0.08-2.12-0.24c-0.76-0.16-1.47-0.44-2.14-0.86c-0.67-0.42-1.21-1-1.63-1.75
			c-0.42-0.75-0.63-1.72-0.63-2.92c0-1.41,0.33-2.57,0.98-3.49c0.65-0.91,1.57-1.63,2.75-2.16c1.18-0.52,2.58-0.89,4.22-1.1
			c1.63-0.21,3.42-0.31,5.35-0.31v-2.04c0-0.68-0.11-1.28-0.33-1.8c-0.22-0.52-0.63-0.93-1.22-1.22c-0.59-0.29-1.43-0.43-2.53-0.43
			c-1.1,0-1.96,0.14-2.57,0.41c-0.62,0.27-1.05,0.61-1.29,1.02c-0.25,0.41-0.37,0.84-0.37,1.31v0.59h-3.92
			c-0.03-0.13-0.04-0.26-0.04-0.39c0-0.13,0-0.29,0-0.47c0-1.23,0.35-2.27,1.04-3.12s1.67-1.5,2.92-1.94
			c1.25-0.44,2.71-0.67,4.35-0.67c1.78,0,3.26,0.25,4.45,0.76c1.19,0.51,2.08,1.24,2.69,2.18c0.6,0.94,0.9,2.08,0.9,3.41v10.47
			c0,0.5,0.12,0.85,0.37,1.06c0.25,0.21,0.54,0.31,0.88,0.31h1.41v2.75c-0.31,0.13-0.71,0.26-1.18,0.39
			c-0.47,0.13-1.02,0.2-1.65,0.2c-0.71,0-1.3-0.12-1.78-0.37c-0.48-0.25-0.88-0.6-1.18-1.06c-0.3-0.46-0.5-0.97-0.61-1.55h-0.24
			c-0.47,0.6-1.04,1.13-1.71,1.59c-0.67,0.46-1.43,0.81-2.29,1.06C-1225.41-163.06-1226.37-162.94-1227.44-162.94z M-1226.31-166.31
			c0.81,0,1.56-0.12,2.25-0.37c0.69-0.25,1.29-0.6,1.79-1.06c0.5-0.46,0.89-1.01,1.18-1.65c0.29-0.64,0.43-1.34,0.43-2.1v-1.37
			c-1.8,0-3.39,0.1-4.75,0.31c-1.36,0.21-2.42,0.59-3.18,1.16c-0.76,0.56-1.14,1.34-1.14,2.33c0,0.6,0.13,1.1,0.39,1.51
			c0.26,0.41,0.65,0.71,1.18,0.92C-1227.63-166.41-1227.01-166.31-1226.31-166.31z"/>
		<path class="st9" d="M-1201.72-162.94c-1.36,0-2.59-0.27-3.69-0.82c-1.1-0.55-2-1.37-2.71-2.47h-0.27l-0.35,2.82h-3.33v-28.35
			h4.08v10.23h0.23c0.44-0.68,0.97-1.24,1.59-1.69c0.61-0.44,1.31-0.77,2.1-0.98c0.78-0.21,1.63-0.31,2.55-0.31
			c1.57,0,2.95,0.38,4.16,1.14c1.2,0.76,2.14,1.92,2.8,3.49c0.67,1.57,1,3.59,1,6.08c0,2.54-0.33,4.6-0.98,6.2
			c-0.65,1.59-1.59,2.77-2.8,3.53C-1198.56-163.32-1200.02-162.94-1201.72-162.94z M-1202.86-166.47c1.18,0,2.14-0.24,2.88-0.71
			s1.3-1.21,1.67-2.22c0.37-1.01,0.55-2.32,0.55-3.94v-0.71c0-1.62-0.18-2.94-0.53-3.96c-0.35-1.02-0.91-1.77-1.67-2.25
			c-0.76-0.48-1.75-0.73-2.98-0.73c-0.76,0-1.45,0.13-2.08,0.39c-0.63,0.26-1.16,0.67-1.61,1.24c-0.45,0.56-0.78,1.29-1.02,2.18
			c-0.24,0.89-0.35,1.96-0.35,3.22v0.55c0,1.49,0.18,2.75,0.53,3.78c0.35,1.03,0.91,1.82,1.67,2.35
			C-1205.04-166.73-1204.06-166.47-1202.86-166.47z"/>
		<path class="st9" d="M-1190.35-163.41v-28.35h4.08v28.35H-1190.35z"/>
		<path class="st9" d="M-1173.45-162.94c-2.12,0-3.89-0.39-5.31-1.16c-1.42-0.77-2.5-1.95-3.24-3.55c-0.73-1.59-1.1-3.62-1.1-6.08
			c0-2.48,0.37-4.52,1.1-6.1c0.73-1.58,1.82-2.76,3.25-3.53c1.44-0.77,3.23-1.16,5.37-1.16c1.96,0,3.6,0.37,4.92,1.12
			s2.32,1.88,3,3.39c0.68,1.52,1.02,3.42,1.02,5.73v1.57h-14.47c0.05,1.46,0.27,2.69,0.67,3.67c0.39,0.98,0.99,1.7,1.78,2.16
			s1.81,0.69,3.04,0.69c0.76,0,1.44-0.1,2.04-0.29c0.6-0.2,1.11-0.48,1.53-0.86c0.42-0.38,0.74-0.84,0.98-1.37
			c0.24-0.54,0.35-1.14,0.35-1.82h4c0,1.23-0.21,2.31-0.63,3.25c-0.42,0.94-1.03,1.73-1.82,2.37c-0.8,0.64-1.75,1.13-2.84,1.47
			C-1170.9-163.11-1172.11-162.94-1173.45-162.94z M-1178.82-175.68h10.12c0-1.02-0.11-1.88-0.33-2.57
			c-0.22-0.69-0.54-1.26-0.96-1.71c-0.42-0.44-0.92-0.76-1.49-0.96c-0.58-0.2-1.23-0.29-1.96-0.29c-1.1,0-2.03,0.2-2.8,0.59
			c-0.77,0.39-1.37,1-1.78,1.82C-1178.45-177.98-1178.72-176.94-1178.82-175.68z"/>
		<path class="st9" d="M-1149.65-163.41l-6.27-20.63h2.94l3.29,11.41c0.16,0.52,0.32,1.12,0.49,1.78c0.17,0.67,0.33,1.31,0.49,1.92
			c0.16,0.61,0.27,1.1,0.35,1.47h0.24c0.1-0.5,0.24-1.08,0.39-1.75c0.16-0.67,0.31-1.31,0.45-1.94s0.27-1.14,0.37-1.53l2.82-11.37
			h3.1l2.9,11.37c0.13,0.47,0.27,1.03,0.41,1.67c0.14,0.64,0.29,1.27,0.43,1.9s0.25,1.18,0.33,1.65h0.24
			c0.1-0.44,0.24-0.98,0.41-1.61s0.34-1.26,0.51-1.9c0.17-0.64,0.32-1.2,0.45-1.67l3.29-11.41h2.67l-6.23,20.63h-2.78l-2.82-11.06
			c-0.11-0.47-0.24-1.05-0.41-1.74c-0.17-0.69-0.33-1.41-0.49-2.14s-0.29-1.37-0.39-1.92h-0.24c-0.1,0.47-0.22,1.05-0.35,1.73
			c-0.13,0.68-0.28,1.37-0.45,2.08c-0.17,0.71-0.33,1.39-0.49,2.04l-2.82,11.02H-1149.65z"/>
		<path class="st9" d="M-1119.1-162.94c-1.99,0-3.68-0.39-5.08-1.16c-1.4-0.77-2.46-1.95-3.18-3.55c-0.72-1.59-1.08-3.62-1.08-6.08
			c0-2.48,0.36-4.52,1.08-6.1c0.72-1.58,1.78-2.76,3.18-3.53c1.4-0.77,3.09-1.16,5.08-1.16c2.04,0,3.75,0.39,5.12,1.16
			c1.37,0.77,2.42,1.95,3.14,3.53c0.72,1.58,1.08,3.61,1.08,6.1c0,2.46-0.36,4.48-1.08,6.08c-0.72,1.6-1.76,2.78-3.14,3.55
			C-1115.35-163.32-1117.06-162.94-1119.1-162.94z M-1119.1-165.33c1.39,0,2.55-0.27,3.49-0.82c0.94-0.55,1.66-1.4,2.16-2.57
			c0.5-1.16,0.74-2.67,0.74-4.53v-0.94c0-1.86-0.25-3.37-0.74-4.53c-0.5-1.16-1.22-2.02-2.16-2.57c-0.94-0.55-2.1-0.82-3.49-0.82
			s-2.55,0.27-3.49,0.82c-0.94,0.55-1.66,1.41-2.16,2.57c-0.5,1.16-0.75,2.67-0.75,4.53v0.94c0,1.86,0.25,3.37,0.75,4.53
			c0.5,1.16,1.22,2.02,2.16,2.57C-1121.65-165.6-1120.48-165.33-1119.1-165.33z"/>
		<path class="st9" d="M-1106.43-163.41v-20.63h2.27l0.24,3.45h0.27c0.18-0.63,0.46-1.24,0.82-1.84c0.37-0.6,0.86-1.1,1.49-1.49
			c0.63-0.39,1.42-0.59,2.39-0.59c0.37,0,0.71,0.03,1.02,0.1c0.31,0.07,0.55,0.12,0.71,0.18v2.59h-1.21c-0.92,0-1.7,0.16-2.35,0.49
			c-0.65,0.33-1.19,0.79-1.61,1.39c-0.42,0.6-0.73,1.29-0.92,2.06c-0.2,0.77-0.29,1.58-0.29,2.41v11.88H-1106.43z"/>
		<path class="st9" d="M-1094.98-163.41v-28.35h2.82v18.27l9.37-10.55h3.41l-7.14,8.04l7.53,12.59h-3.29l-6.08-10.51l-3.8,3.88v6.63
			H-1094.98z"/>
		<path class="st9" d="M-1070.12-162.94c-1.36,0-2.56-0.14-3.61-0.41c-1.05-0.27-1.92-0.68-2.61-1.22
			c-0.69-0.54-1.21-1.18-1.57-1.94c-0.35-0.76-0.53-1.63-0.53-2.63c0-0.1,0-0.22,0-0.33s0.01-0.23,0.04-0.33h2.78
			c-0.03,0.13-0.04,0.24-0.04,0.33c0,0.09,0,0.18,0,0.25c0.03,1.02,0.27,1.81,0.75,2.37c0.47,0.56,1.14,0.96,2,1.2
			s1.86,0.35,2.98,0.35c0.97,0,1.84-0.14,2.61-0.41c0.77-0.27,1.39-0.67,1.84-1.2c0.46-0.52,0.69-1.16,0.69-1.92
			c0-0.97-0.29-1.7-0.88-2.2c-0.59-0.5-1.35-0.88-2.29-1.16c-0.94-0.27-1.92-0.57-2.94-0.88c-0.84-0.24-1.66-0.49-2.47-0.76
			c-0.81-0.27-1.55-0.62-2.22-1.04c-0.67-0.42-1.2-0.95-1.59-1.61c-0.39-0.65-0.59-1.48-0.59-2.47c0-0.86,0.18-1.63,0.53-2.31
			c0.35-0.68,0.86-1.26,1.53-1.75c0.67-0.48,1.48-0.86,2.45-1.12c0.97-0.26,2.06-0.39,3.29-0.39c1.36,0,2.52,0.16,3.49,0.47
			c0.97,0.31,1.75,0.74,2.35,1.27c0.6,0.54,1.04,1.14,1.33,1.8c0.29,0.67,0.43,1.37,0.43,2.1c0,0.1-0.01,0.22-0.02,0.35
			c-0.01,0.13-0.02,0.25-0.02,0.35h-2.78v-0.51c0-0.55-0.14-1.08-0.41-1.61s-0.76-0.97-1.45-1.33c-0.69-0.37-1.72-0.55-3.08-0.55
			c-0.81,0-1.51,0.07-2.1,0.22c-0.59,0.14-1.08,0.35-1.49,0.61c-0.41,0.26-0.71,0.58-0.9,0.96s-0.29,0.82-0.29,1.31
			c0,0.76,0.24,1.34,0.73,1.75c0.48,0.41,1.12,0.73,1.9,0.98c0.79,0.25,1.62,0.52,2.51,0.8c0.89,0.26,1.8,0.54,2.73,0.82
			s1.78,0.64,2.57,1.06c0.78,0.42,1.41,0.97,1.88,1.67c0.47,0.69,0.71,1.6,0.71,2.73c0,1.05-0.21,1.97-0.63,2.76
			s-0.99,1.46-1.73,1.98c-0.73,0.52-1.6,0.92-2.61,1.18C-1067.85-163.07-1068.94-162.94-1070.12-162.94z"/>
		<path class="st9" d="M-1058.55-156.62v-27.41h2.24l0.31,3.02h0.27c0.73-1.18,1.65-2.05,2.75-2.63c1.1-0.57,2.34-0.86,3.73-0.86
			c1.72,0,3.2,0.38,4.41,1.14c1.22,0.76,2.14,1.94,2.78,3.55s0.96,3.71,0.96,6.29c0,2.41-0.33,4.39-0.98,5.96
			c-0.65,1.57-1.59,2.73-2.8,3.49c-1.22,0.76-2.65,1.14-4.29,1.14c-0.84,0-1.65-0.1-2.43-0.31s-1.5-0.55-2.16-1.02
			c-0.65-0.47-1.22-1.07-1.69-1.8h-0.27v9.45H-1058.55z M-1049.93-165.41c1.31,0,2.4-0.27,3.27-0.8c0.88-0.54,1.53-1.38,1.96-2.53
			c0.43-1.15,0.65-2.64,0.65-4.47v-0.98c0-1.96-0.24-3.51-0.71-4.65c-0.47-1.14-1.13-1.95-1.98-2.45c-0.85-0.5-1.85-0.74-3-0.74
			c-1.41,0-2.56,0.31-3.45,0.92s-1.54,1.52-1.94,2.71c-0.41,1.19-0.61,2.65-0.61,4.37v0.67c0,1.62,0.17,2.95,0.51,4
			c0.34,1.05,0.78,1.86,1.33,2.43c0.55,0.58,1.17,0.97,1.86,1.2C-1051.33-165.52-1050.63-165.41-1049.93-165.41z"/>
		<path class="st9" d="M-1032.63-162.94c-0.81,0-1.61-0.1-2.39-0.29c-0.78-0.2-1.48-0.51-2.1-0.94s-1.1-1.01-1.47-1.75
			c-0.37-0.73-0.55-1.63-0.55-2.71c0-1.41,0.35-2.57,1.04-3.47c0.69-0.9,1.67-1.61,2.92-2.12c1.25-0.51,2.74-0.86,4.45-1.04
			c1.71-0.18,3.57-0.27,5.59-0.27v-2.63c0-0.84-0.15-1.55-0.45-2.14c-0.3-0.59-0.82-1.04-1.57-1.37c-0.75-0.33-1.8-0.49-3.16-0.49
			c-1.31,0-2.34,0.17-3.1,0.51c-0.76,0.34-1.29,0.78-1.59,1.31c-0.3,0.54-0.45,1.13-0.45,1.78v0.63h-2.71
			c-0.03-0.13-0.04-0.26-0.04-0.39c0-0.13,0-0.29,0-0.47c0-1.31,0.34-2.38,1.02-3.22c0.68-0.84,1.65-1.46,2.9-1.88
			c1.25-0.42,2.69-0.63,4.31-0.63c1.65,0,3.03,0.24,4.16,0.73c1.12,0.48,1.99,1.17,2.59,2.06c0.6,0.89,0.9,1.96,0.9,3.22v11.84
			c0,0.5,0.1,0.84,0.29,1.04c0.2,0.2,0.46,0.29,0.8,0.29h1.65v1.8c-0.39,0.16-0.8,0.29-1.24,0.39c-0.43,0.1-0.88,0.16-1.35,0.16
			c-0.68,0-1.22-0.14-1.63-0.43c-0.41-0.29-0.69-0.69-0.86-1.22c-0.17-0.52-0.28-1.1-0.33-1.73h-0.27c-0.5,0.71-1.13,1.31-1.9,1.82
			c-0.77,0.51-1.61,0.9-2.53,1.18C-1030.61-163.07-1031.59-162.94-1032.63-162.94z M-1032.04-165.33c0.86,0,1.7-0.14,2.51-0.43
			c0.81-0.29,1.54-0.69,2.2-1.2s1.18-1.12,1.59-1.82c0.41-0.71,0.61-1.49,0.61-2.35v-2.12c-2.43,0-4.46,0.13-6.1,0.39
			c-1.63,0.26-2.86,0.72-3.69,1.37c-0.82,0.65-1.24,1.57-1.24,2.75c0,0.78,0.18,1.43,0.53,1.94c0.35,0.51,0.84,0.88,1.47,1.12
			C-1033.53-165.45-1032.83-165.33-1032.04-165.33z"/>
		<path class="st9" d="M-1010.08-162.94c-1.91,0-3.52-0.39-4.84-1.18c-1.32-0.78-2.32-1.97-3-3.57c-0.68-1.59-1.02-3.61-1.02-6.04
			c0-2.4,0.34-4.4,1.02-6c0.68-1.59,1.69-2.79,3.04-3.59c1.35-0.8,3-1.2,4.96-1.2c1.44,0,2.66,0.19,3.67,0.57
			c1.01,0.38,1.83,0.92,2.47,1.63c0.64,0.71,1.1,1.56,1.39,2.55c0.29,0.99,0.43,2.1,0.43,3.33h-2.78c0-1.33-0.18-2.41-0.53-3.24
			c-0.35-0.82-0.92-1.44-1.69-1.84c-0.77-0.41-1.78-0.61-3.04-0.61c-1.18,0-2.22,0.26-3.12,0.78c-0.9,0.52-1.61,1.35-2.12,2.49
			s-0.76,2.69-0.76,4.65v0.94c0,1.86,0.24,3.37,0.71,4.53c0.47,1.16,1.16,2.02,2.06,2.57c0.9,0.55,1.98,0.82,3.24,0.82
			c1.31,0,2.35-0.23,3.12-0.69c0.77-0.46,1.33-1.11,1.67-1.96c0.34-0.85,0.51-1.86,0.51-3.04h2.75c0,1.1-0.14,2.14-0.43,3.12
			c-0.29,0.98-0.75,1.84-1.39,2.57c-0.64,0.73-1.48,1.31-2.51,1.75C-1007.33-163.15-1008.59-162.94-1010.08-162.94z"/>
		<path class="st9" d="M-990.83-162.94c-1.96,0-3.62-0.39-4.98-1.16c-1.36-0.77-2.39-1.95-3.1-3.55c-0.71-1.59-1.06-3.62-1.06-6.08
			c0-2.48,0.35-4.52,1.06-6.1c0.71-1.58,1.75-2.76,3.14-3.53c1.38-0.77,3.11-1.16,5.18-1.16c1.91,0,3.51,0.38,4.8,1.14
			c1.29,0.76,2.27,1.86,2.94,3.29c0.67,1.44,1,3.2,1,5.29v1.8h-15.18c0,1.8,0.25,3.28,0.75,4.43c0.5,1.15,1.21,1.98,2.14,2.49
			s2.07,0.76,3.43,0.76c0.99,0,1.86-0.13,2.61-0.39c0.75-0.26,1.36-0.62,1.84-1.08c0.48-0.46,0.86-1,1.12-1.63
			c0.26-0.63,0.39-1.28,0.39-1.96h2.75c0,1.02-0.19,1.98-0.57,2.88s-0.93,1.69-1.65,2.37c-0.72,0.68-1.63,1.21-2.73,1.59
			C-988.05-163.13-989.34-162.94-990.83-162.94z M-997.03-175.21h12.23c0-1.31-0.15-2.4-0.45-3.27s-0.71-1.58-1.23-2.12
			c-0.52-0.54-1.14-0.92-1.86-1.16s-1.52-0.35-2.41-0.35c-1.28,0-2.38,0.24-3.29,0.73c-0.92,0.48-1.62,1.23-2.1,2.25
			C-996.63-178.11-996.92-176.81-997.03-175.21z"/>
		<path class="st9" d="M-981.3-158.51v-2.35h18.63v2.35H-981.3z"/>
	</g>
</g>
<g>
	<linearGradient id="SVGID_10_" gradientUnits="userSpaceOnUse" x1="-549.3612" y1="-364.0005" x2="-273.1913" y2="-87.8306">
		<stop  offset="0" style="stop-color:#29ABE2"/>
		<stop  offset="1" style="stop-color:#2D409C"/>
	</linearGradient>
	<path class="st10" d="M-472.43-274.78h16.96c0.54,0,1.02,0.34,1.2,0.86l15.06,43.97h0.54l15.06-43.97c0.18-0.51,0.66-0.86,1.2-0.86
		h16.96c0.89,0,1.5,0.89,1.19,1.72l-24.17,64.03c-0.19,0.49-0.66,0.82-1.19,0.82h-18.62c-0.53,0-1-0.33-1.19-0.82l-24.17-64.03
		C-473.93-273.89-473.32-274.78-472.43-274.78z"/>
	<linearGradient id="SVGID_11_" gradientUnits="userSpaceOnUse" x1="-489.7785" y1="-423.5832" x2="-213.6086" y2="-147.4133">
		<stop  offset="0" style="stop-color:#29ABE2"/>
		<stop  offset="1" style="stop-color:#2D409C"/>
	</linearGradient>
	<path class="st11" d="M-327.14-274.78h15.8c0.7,0,1.27,0.57,1.27,1.27v8.24h0.68c1.49-2.04,3.12-3.8,5.03-5.43
		c3.26-2.72,8.15-5.43,14.67-5.43h0.09c0.7,0,1.27,0.57,1.27,1.27v16.91c0,0.79-0.72,1.39-1.5,1.25l0,0
		c-1.09-0.14-2.58-0.41-4.62-0.41c-8.83,0-15.62,6.79-15.62,17.66v29.98c0,0.7-0.57,1.27-1.27,1.27h-15.8
		c-0.7,0-1.27-0.57-1.27-1.27v-64.03C-328.41-274.21-327.84-274.78-327.14-274.78z"/>
	<linearGradient id="SVGID_12_" gradientUnits="userSpaceOnUse" x1="-471.0513" y1="-442.3104" x2="-194.8814" y2="-166.1405">
		<stop  offset="0" style="stop-color:#29ABE2"/>
		<stop  offset="1" style="stop-color:#2D409C"/>
	</linearGradient>
	<path class="st12" d="M-278.14-274.78h15.8c0.7,0,1.27,0.57,1.27,1.27v64.03c0,0.7-0.57,1.27-1.27,1.27h-15.8
		c-0.7,0-1.27-0.57-1.27-1.27v-64.03C-279.41-274.21-278.84-274.78-278.14-274.78z"/>
	<linearGradient id="SVGID_13_" gradientUnits="userSpaceOnUse" x1="-448.1074" y1="-465.2543" x2="-171.9375" y2="-189.0845">
		<stop  offset="0" style="stop-color:#29ABE2"/>
		<stop  offset="1" style="stop-color:#2D409C"/>
	</linearGradient>
	<path class="st13" d="M-242.85-229.67c0.48-0.51,1.28-0.53,1.79-0.05c1.16,1.1,2.47,2.04,3.86,2.9c3.12,2.04,7.47,3.67,12.91,3.67
		c6.11,0,8.15-2.04,8.15-4.75c0-7.47-33.96-6.11-33.96-27.85c0-10.87,9.51-20.38,26.49-20.38c8.56,0,14.94,2.58,19.29,5.16
		c2.15,1.24,4.01,2.67,5.6,4.14c0.52,0.48,0.55,1.29,0.06,1.81l-9.19,9.77c-0.45,0.48-1.19,0.53-1.71,0.13
		c-0.9-0.7-1.94-1.38-3.04-1.98c-2.58-1.49-6.25-2.72-11-2.72c-4.75,0-6.79,2.04-6.79,4.08c0,7.47,33.96,6.11,33.96,27.85
		c0,11.41-9.51,21.06-27.85,21.06c-9.24,0-16.3-2.99-21.19-6.11c-2.48-1.53-4.64-3.27-6.5-5.21c-0.47-0.49-0.49-1.27-0.02-1.76
		L-242.85-229.67z"/>
	<linearGradient id="SVGID_14_" gradientUnits="userSpaceOnUse" x1="-575.9656" y1="-337.3961" x2="-299.7957" y2="-61.2262">
		<stop  offset="0" style="stop-color:#29ABE2"/>
		<stop  offset="1" style="stop-color:#2D409C"/>
	</linearGradient>
	<path class="st14" d="M-484.74-226.54v-74.67c0-0.7-0.57-1.27-1.27-1.27h-15.8c-0.7,0-1.27,0.57-1.27,1.27v91.73
		c0,0.7,0.57,1.27,1.27,1.27h16.56h0.52h8.88c0.7,0,1.27-0.57,1.27-1.27V-224c0-0.7-0.57-1.27-1.27-1.27h-7.61
		C-484.17-225.27-484.74-225.84-484.74-226.54z"/>
	<linearGradient id="SVGID_15_" gradientUnits="userSpaceOnUse" x1="-444.9362" y1="-468.4255" x2="-168.7663" y2="-192.2556">
		<stop  offset="0" style="stop-color:#29ABE2"/>
		<stop  offset="1" style="stop-color:#2D409C"/>
	</linearGradient>
	<path class="st15" d="M-263.13-302.85h-13.97c-1.14,0-2.06,0.92-2.06,2.06v14.38c0,1.14,0.92,2.06,2.06,2.06h13.97
		c1.14,0,2.06-0.92,2.06-2.06v-14.38C-261.07-301.93-261.99-302.85-263.13-302.85z"/>
	<linearGradient id="SVGID_16_" gradientUnits="userSpaceOnUse" x1="-473.3563" y1="-440.0054" x2="-197.1864" y2="-163.8355">
		<stop  offset="0" style="stop-color:#29ABE2"/>
		<stop  offset="1" style="stop-color:#2D409C"/>
	</linearGradient>
	<path class="st16" d="M-213.2-185.15h-22.44c-2.24,0-4.06-1.82-4.06-4.06v-3.73c0-2.24,1.82-4.06,4.06-4.06h22.44
		c2.24,0,4.06,1.82,4.06,4.06v3.73C-209.15-186.97-210.96-185.15-213.2-185.15z"/>
	<linearGradient id="SVGID_17_" gradientUnits="userSpaceOnUse" x1="-609.4236" y1="-303.938" x2="-333.2538" y2="-27.7681">
		<stop  offset="0" style="stop-color:#29ABE2"/>
		<stop  offset="1" style="stop-color:#2D409C"/>
	</linearGradient>
	<path class="st17" d="M-546.7-274.77c-17.76,0-32.86,13.58-32.86,33.75c0,19.53,14.09,33.75,35.4,33.75
		c9.88,0,18.27-3.85,23.86-9.17c0.55-0.52,0.45-1.42-0.2-1.81l-11.45-6.74c-0.38-0.22-0.85-0.2-1.22,0.05
		c-2.61,1.76-6.34,3.33-10.99,3.33c-8.35,0-15.12-4.03-17.81-11.68c-0.26-0.74,0.29-1.51,1.07-1.51h45.14
		c0.58,0,1.08-0.44,1.13-1.02C-512.23-260.57-527.55-274.77-546.7-274.77z M-560.95-247.24c-0.76,0-1.31-0.74-1.09-1.47
		c2.27-7.36,8.21-11.73,15.59-11.73c8.12,0,13.66,4.27,15.66,11.76c0.19,0.72-0.35,1.43-1.1,1.43H-560.95z"/>
	<linearGradient id="SVGID_18_" gradientUnits="userSpaceOnUse" x1="-520.4236" y1="-392.938" x2="-244.2538" y2="-116.7682">
		<stop  offset="0" style="stop-color:#29ABE2"/>
		<stop  offset="1" style="stop-color:#2D409C"/>
	</linearGradient>
	<path class="st18" d="M-368.7-274.77c-17.76,0-32.86,13.58-32.86,33.75c0,19.53,14.09,33.75,35.4,33.75
		c9.88,0,18.27-3.85,23.86-9.17c0.55-0.52,0.45-1.42-0.2-1.81l-11.45-6.74c-0.38-0.22-0.85-0.2-1.22,0.05
		c-2.61,1.76-6.34,3.33-10.99,3.33c-8.35,0-15.12-4.03-17.81-11.68c-0.26-0.74,0.29-1.51,1.07-1.51h45.14
		c0.58,0,1.08-0.44,1.13-1.02C-334.23-260.57-349.55-274.77-368.7-274.77z M-382.95-247.24c-0.76,0-1.31-0.74-1.09-1.47
		c2.27-7.36,8.21-11.73,15.59-11.73c8.12,0,13.66,4.27,15.66,11.76c0.19,0.72-0.35,1.43-1.1,1.43H-382.95z"/>
</g>
<g>
	<path class="st19" d="M195.57-274.78h16.96c0.54,0,1.02,0.34,1.2,0.86l15.06,43.97h0.54l15.06-43.97c0.18-0.51,0.66-0.86,1.2-0.86
		h16.96c0.89,0,1.5,0.89,1.19,1.72l-24.17,64.03c-0.19,0.49-0.66,0.82-1.19,0.82h-18.62c-0.53,0-1-0.33-1.19-0.82l-24.17-64.03
		C194.07-273.89,194.68-274.78,195.57-274.78z"/>
	<path class="st19" d="M340.86-274.78h15.8c0.7,0,1.27,0.57,1.27,1.27v8.24h0.68c1.49-2.04,3.12-3.8,5.03-5.43
		c3.26-2.72,8.15-5.43,14.67-5.43h0.09c0.7,0,1.27,0.57,1.27,1.27v16.91c0,0.79-0.72,1.39-1.5,1.25l0,0
		c-1.09-0.14-2.58-0.41-4.62-0.41c-8.83,0-15.62,6.79-15.62,17.66v29.98c0,0.7-0.57,1.27-1.27,1.27h-15.8
		c-0.7,0-1.27-0.57-1.27-1.27v-64.03C339.59-274.21,340.16-274.78,340.86-274.78z"/>
	<path class="st19" d="M389.86-274.78h15.8c0.7,0,1.27,0.57,1.27,1.27v64.03c0,0.7-0.57,1.27-1.27,1.27h-15.8
		c-0.7,0-1.27-0.57-1.27-1.27v-64.03C388.59-274.21,389.16-274.78,389.86-274.78z"/>
	<path class="st19" d="M425.15-229.67c0.48-0.51,1.28-0.53,1.79-0.05c1.16,1.1,2.47,2.04,3.86,2.9c3.12,2.04,7.47,3.67,12.91,3.67
		c6.11,0,8.15-2.04,8.15-4.75c0-7.47-33.96-6.11-33.96-27.85c0-10.87,9.51-20.38,26.49-20.38c8.56,0,14.94,2.58,19.29,5.16
		c2.15,1.24,4.01,2.67,5.6,4.14c0.52,0.48,0.55,1.29,0.06,1.81l-9.19,9.77c-0.45,0.48-1.19,0.53-1.71,0.13
		c-0.9-0.7-1.94-1.38-3.04-1.98c-2.58-1.49-6.25-2.72-11-2.72c-4.75,0-6.79,2.04-6.79,4.08c0,7.47,33.96,6.11,33.96,27.85
		c0,11.41-9.51,21.06-27.85,21.06c-9.24,0-16.3-2.99-21.19-6.11c-2.48-1.53-4.64-3.27-6.5-5.21c-0.47-0.49-0.49-1.27-0.02-1.76
		L425.15-229.67z"/>
	<path class="st19" d="M183.26-226.54v-74.67c0-0.7-0.57-1.27-1.27-1.27h-15.8c-0.7,0-1.27,0.57-1.27,1.27v91.73
		c0,0.7,0.57,1.27,1.27,1.27h16.56h0.52h8.88c0.7,0,1.27-0.57,1.27-1.27V-224c0-0.7-0.57-1.27-1.27-1.27h-7.61
		C183.83-225.27,183.26-225.84,183.26-226.54z"/>
	<path class="st19" d="M404.87-302.85H390.9c-1.14,0-2.06,0.92-2.06,2.06v14.38c0,1.14,0.92,2.06,2.06,2.06h13.97
		c1.14,0,2.06-0.92,2.06-2.06v-14.38C406.93-301.93,406.01-302.85,404.87-302.85z"/>
	<path class="st19" d="M454.8-185.15h-22.44c-2.24,0-4.06-1.82-4.06-4.06v-3.73c0-2.24,1.82-4.06,4.06-4.06h22.44
		c2.24,0,4.06,1.82,4.06,4.06v3.73C458.85-186.97,457.04-185.15,454.8-185.15z"/>
	<path class="st19" d="M121.3-274.77c-17.76,0-32.86,13.58-32.86,33.75c0,19.53,14.09,33.75,35.4,33.75
		c9.88,0,18.27-3.85,23.86-9.17c0.55-0.52,0.45-1.42-0.2-1.81l-11.45-6.74c-0.38-0.22-0.85-0.2-1.22,0.05
		c-2.61,1.76-6.34,3.33-10.99,3.33c-8.35,0-15.12-4.03-17.81-11.68c-0.26-0.74,0.29-1.51,1.07-1.51h45.14
		c0.58,0,1.08-0.44,1.13-1.02C155.77-260.57,140.45-274.77,121.3-274.77z M107.05-247.24c-0.76,0-1.31-0.74-1.09-1.47
		c2.27-7.36,8.21-11.73,15.59-11.73c8.12,0,13.66,4.27,15.66,11.76c0.19,0.72-0.35,1.43-1.1,1.43H107.05z"/>
	<path class="st19" d="M299.3-274.77c-17.76,0-32.86,13.58-32.86,33.75c0,19.53,14.09,33.75,35.4,33.75
		c9.88,0,18.27-3.85,23.86-9.17c0.55-0.52,0.45-1.42-0.2-1.81l-11.45-6.74c-0.38-0.22-0.85-0.2-1.22,0.05
		c-2.61,1.76-6.34,3.33-10.99,3.33c-8.35,0-15.12-4.03-17.81-11.68c-0.26-0.74,0.29-1.51,1.07-1.51h45.14
		c0.58,0,1.08-0.44,1.13-1.02C333.77-260.57,318.45-274.77,299.3-274.77z M285.05-247.24c-0.76,0-1.31-0.74-1.09-1.47
		c2.27-7.36,8.21-11.73,15.59-11.73c8.12,0,13.66,4.27,15.66,11.76c0.19,0.72-0.35,1.43-1.1,1.43H285.05z"/>
</g>
<linearGradient id="SVGID_19_" gradientUnits="userSpaceOnUse" x1="-743.9894" y1="-63.9894" x2="-18.8111" y2="661.189">
	<stop  offset="0" style="stop-color:#29ABE2"/>
	<stop  offset="1" style="stop-color:#2D409C"/>
</linearGradient>
<path class="st20" d="M-174.68,30h-426.65C-628.21,30-650,51.79-650,78.68v426.65c0,26.88,21.79,48.68,48.68,48.68h426.65
	c26.88,0,48.68-21.79,48.68-48.68V78.68C-126,51.79-147.79,30-174.68,30z M-385.6,156.2c57.08,0,95.97,30.01,109.98,82.62
	c1.34,5.05-2.46,10.07-7.7,10.07h-204.14c-5.36,0-9.2-5.24-7.64-10.36C-479.14,186.86-437.44,156.2-385.6,156.2z M-607.58,105.95
	c0-17.53,14.21-31.75,31.75-31.75h90.26c1.31,0,1.68,1.76,0.49,2.31c-55.4,25.28-99.41,72.24-120.14,134.13
	c-0.43,1.3-2.35,0.98-2.35-0.39V105.95z M-480.23,510.86h-95.61c-17.53,0-31.75-14.21-31.75-31.75V374.76c0-1.36,1.92-1.7,2.35-0.4
	c20.5,60.98,64.52,108.55,125.45,134.18C-478.54,509.05-478.89,510.86-480.23,510.86z M-170.91,479.11
	c0,17.54-14.21,31.75-31.75,31.75h-64.57c-1.32,0-1.68-1.79-0.47-2.33c25.46-11.18,47.67-26.19,65.73-43.37
	c3.87-3.68,3.18-10.01-1.4-12.69l-80.41-47.35c-2.68-1.56-5.99-1.4-8.58,0.34c-18.31,12.35-44.54,23.39-77.17,23.39
	c-58.64,0-106.23-28.32-125.07-82.03c-1.81-5.18,2.06-10.67,7.55-10.67h314.93c0.67,0,1.21,0.54,1.21,1.21V479.11z M-170.91,206.07
	c0,1.38-1.93,1.68-2.35,0.37c-19.81-61.74-60.97-105.92-113.63-129.93c-1.19-0.55-0.83-2.31,0.49-2.31h83.75
	c17.53,0,31.75,14.22,31.75,31.75V206.07z"/>
<path class="st19" d="M505.32,30H78.68C51.79,30,30,51.79,30,78.68v426.65C30,532.21,51.79,554,78.68,554h426.65
	c26.88,0,48.68-21.79,48.68-48.68V78.68C554,51.79,532.21,30,505.32,30z M294.4,156.2c57.08,0,95.97,30.01,109.98,82.62
	c1.34,5.05-2.46,10.07-7.7,10.07H192.53c-5.36,0-9.2-5.24-7.64-10.36C200.86,186.86,242.56,156.2,294.4,156.2z M72.42,105.95
	c0-17.53,14.21-31.75,31.75-31.75h90.26c1.31,0,1.68,1.76,0.49,2.31c-55.4,25.28-99.41,72.24-120.14,134.13
	c-0.43,1.3-2.35,0.98-2.35-0.39V105.95z M199.77,510.86h-95.61c-17.53,0-31.75-14.21-31.75-31.75V374.76c0-1.36,1.92-1.7,2.35-0.4
	c20.5,60.98,64.52,108.55,125.45,134.18C201.46,509.05,201.11,510.86,199.77,510.86z M509.09,479.11
	c0,17.54-14.21,31.75-31.75,31.75h-64.57c-1.32,0-1.68-1.79-0.47-2.33c25.46-11.18,47.67-26.19,65.73-43.37
	c3.87-3.68,3.18-10.01-1.4-12.69l-80.41-47.35c-2.68-1.56-5.99-1.4-8.58,0.34c-18.31,12.35-44.54,23.39-77.17,23.39
	c-58.64,0-106.23-28.32-125.07-82.03c-1.81-5.18,2.06-10.67,7.55-10.67h314.93c0.67,0,1.21,0.54,1.21,1.21V479.11z M509.09,206.07
	c0,1.38-1.93,1.68-2.35,0.37C486.92,144.7,445.77,100.52,393.1,76.51c-1.19-0.55-0.83-2.31,0.49-2.31h83.75
	c17.53,0,31.75,14.22,31.75,31.75V206.07z"/>
</svg>
